<?xml version="1.0" standalone="no"?>
<!DOCTYPE svg PUBLIC "-//W3C//DTD SVG 1.1//EN" "http://www.w3.org/Graphics/SVG/1.1/DTD/svg11.dtd">
<svg xmlns="http://www.w3.org/2000/svg" id="Layer_1" viewBox="0 0 264.53 100" width="264.5299987792969" height="100"><defs><style>.cls-1{fill:#231f20;}.cls-1,.cls-2,.cls-3,.cls-4,.cls-5{stroke-width:0px;}.cls-2{fill:#244cd3;}.cls-3{fill:#8b3de0;}.cls-4{fill:#90513a;}.cls-5{fill:#fff;}</style></defs><path class="cls-1" d="M251.85,41.32l11.28-13.25-4.56-4.87c-3.22-3.44-7.59-6.05-12.98-7.76-5.1-1.61-10.96-2.29-17.42-2.01-7.76.34-14.17,1.75-19.59,4.33-3.11,1.48-5.86,3.2-8.22,5.14-2.77-2.13-6.1-3.83-9.97-5.05-5.1-1.61-10.96-2.29-17.42-2.01-7.76.34-14.17,1.75-19.59,4.33-3.11,1.48-5.86,3.2-8.22,5.14-2.77-2.13-6.1-3.83-9.97-5.05-5.1-1.61-10.96-2.29-17.42-2.01-7.76.34-14.17,1.75-19.59,4.33-3.36,1.6-6.28,3.47-8.76,5.59-.44-1.6-.97-3.13-1.6-4.6-2.94-6.88-7.69-12.13-14.11-15.6-6.22-3.36-13.89-4.87-22.8-4.48s-16.85,2.57-23.85,6.49c-7.25,4.06-13.14,9.77-17.51,16.96-4.21,6.93-6.81,15.1-7.71,24.31-.91,9.21.09,17.23,2.96,23.84,2.98,6.88,7.8,12.12,14.3,15.58,6.28,3.35,13.94,4.85,22.77,4.46,8.91-.39,16.95-2.58,23.89-6.52,3.76-2.13,7.15-4.73,10.16-7.75l1.14,1.07c3.87,3.64,8.7,6.37,14.36,8.12,5.48,1.7,11.45,2.42,17.75,2.15,7.53-.33,13.76-1.69,19.04-4.18,3.09-1.45,5.83-3.19,8.21-5.19,3,2.03,6.41,3.65,10.19,4.82,5.48,1.7,11.45,2.42,17.75,2.15,7.53-.33,13.76-1.69,19.04-4.18,3.09-1.45,5.83-3.19,8.21-5.19,3,2.03,6.41,3.65,10.19,4.82,5.48,1.7,11.45,2.42,17.75,2.15,7.53-.33,13.76-1.69,19.04-4.18,5.63-2.64,10.12-6.23,13.35-10.66,3.24-4.45,5.14-9.3,5.64-14.44.6-6.1-.99-11.51-4.61-15.62-.36-.4-.73-.79-1.13-1.17ZM49.66,58c-.39.95-1.04,2.22-1.89,2.86-.22.16-.88.66-2.57.73-.81.04-1.89-.02-2.46-.47-.59-.47-1.08-1.45-1.41-2.84-.5-2.12-.57-5.07-.21-8.76.46-4.68,1.31-7.41,1.94-8.88.42-.98,1.11-2.29,1.99-2.97.66-.51,1.76-.65,2.57-.69,1.7-.07,2.27.37,2.45.51.74.58,1.14,1.78,1.35,2.69.33,1.45.62,4.17.16,8.88-.37,3.72-1.02,6.73-1.92,8.94Z"/><path class="cls-5" d="M50.14,11.58c7.57-.33,13.91.89,19.01,3.65,5.11,2.76,8.83,6.89,11.18,12.38,2.35,5.5,3.13,12.2,2.35,20.11-.78,7.91-2.9,14.74-6.36,20.49-3.46,5.75-8.04,10.24-13.73,13.47-5.7,3.23-12.33,5.01-19.9,5.34s-13.84-.89-19.02-3.65c-5.18-2.76-8.96-6.88-11.35-12.37-2.39-5.49-3.19-12.19-2.41-20.11.78-7.91,2.92-14.74,6.41-20.49,3.49-5.75,8.13-10.24,13.9-13.47,5.77-3.23,12.41-5.01,19.9-5.34ZM48.43,28.88c-3.01.13-5.57,1-7.67,2.6-2.1,1.6-3.79,3.9-5.07,6.9-1.28,3-2.16,6.83-2.62,11.49-.45,4.59-.33,8.35.37,11.31.7,2.95,1.94,5.14,3.74,6.57,1.8,1.43,4.2,2.08,7.22,1.95s5.48-.99,7.61-2.6c2.13-1.6,3.83-3.92,5.08-6.96,1.25-3.04,2.1-6.85,2.56-11.43s.36-8.45-.3-11.36c-.66-2.92-1.91-5.09-3.75-6.52-1.83-1.43-4.22-2.08-7.16-1.95Z"/><path class="cls-2" d="M109.98,84.08c-5.44.24-10.5-.37-15.19-1.82-4.69-1.45-8.6-3.66-11.75-6.61l10.22-12.37c1.63,1.99,3.96,3.66,6.97,5,3.01,1.34,6.25,1.94,9.7,1.79,1.76-.08,3.27-.36,4.53-.86,1.26-.5,1.94-1.3,2.05-2.41.07-.74-.18-1.32-.76-1.73-.58-.42-1.88-.8-3.89-1.16l-5.51-.86c-7.35-1.15-12.45-3.08-15.29-5.8-2.84-2.71-4.03-6.43-3.56-11.17.3-3.03,1.52-5.99,3.68-8.89,2.15-2.89,5.36-5.35,9.62-7.38,4.26-2.03,9.66-3.18,16.2-3.47,5.58-.24,10.52.32,14.82,1.67,4.29,1.36,7.66,3.35,10.11,5.97l-10.06,11.81c-1.66-1.77-3.95-3.14-6.89-4.12-2.94-.98-5.77-1.41-8.49-1.29-1.47.06-2.68.23-3.62.49-.94.26-1.65.62-2.14,1.09s-.76.99-.81,1.58c-.07.67.28,1.28,1.03,1.83.75.56,2.24,1.01,4.48,1.35l8.67,1.17c5.7.78,9.74,2.52,12.11,5.22,2.37,2.7,3.35,6.08,2.95,10.14-.35,3.55-1.65,6.86-3.89,9.94-2.24,3.08-5.44,5.59-9.58,7.54-4.14,1.95-9.38,3.06-15.7,3.33Z"/><path class="cls-3" d="M165.17,81.68c-5.44.24-10.5-.37-15.19-1.82-4.69-1.45-8.6-3.66-11.75-6.61l10.22-12.37c1.63,1.99,3.96,3.66,6.97,5,3.01,1.34,6.25,1.94,9.7,1.79,1.76-.08,3.27-.36,4.53-.86,1.26-.5,1.94-1.3,2.05-2.41.07-.74-.18-1.32-.76-1.73-.58-.42-1.88-.8-3.89-1.16l-5.51-.86c-7.35-1.15-12.45-3.08-15.29-5.8-2.84-2.71-4.03-6.43-3.56-11.17.3-3.03,1.52-5.99,3.68-8.89,2.15-2.89,5.36-5.35,9.62-7.38,4.26-2.03,9.66-3.18,16.2-3.47,5.58-.24,10.52.32,14.82,1.67,4.29,1.36,7.66,3.35,10.11,5.97l-10.06,11.81c-1.66-1.77-3.95-3.14-6.89-4.12-2.94-.98-5.77-1.41-8.49-1.29-1.47.06-2.68.23-3.62.49-.94.26-1.65.62-2.14,1.09-.49.46-.76.99-.81,1.58-.07.67.28,1.28,1.03,1.83.75.56,2.24,1.01,4.48,1.35l8.67,1.17c5.7.78,9.74,2.52,12.11,5.22,2.37,2.7,3.35,6.08,2.95,10.14-.35,3.55-1.65,6.86-3.89,9.94-2.24,3.08-5.44,5.59-9.58,7.54-4.14,1.95-9.38,3.06-15.7,3.33Z"/><path class="cls-4" d="M220.36,79.28c-5.44.24-10.5-.37-15.19-1.82-4.69-1.45-8.6-3.66-11.75-6.61l10.22-12.37c1.63,1.99,3.96,3.66,6.97,5,3.01,1.34,6.25,1.94,9.7,1.79,1.76-.08,3.27-.36,4.53-.86,1.26-.5,1.94-1.3,2.05-2.41.07-.74-.18-1.32-.76-1.73-.58-.42-1.88-.8-3.89-1.16l-5.51-.86c-7.35-1.15-12.45-3.08-15.29-5.8-2.84-2.71-4.03-6.43-3.56-11.17.3-3.03,1.52-5.99,3.68-8.89,2.15-2.89,5.36-5.35,9.62-7.38,4.26-2.03,9.66-3.18,16.2-3.47,5.58-.24,10.52.32,14.82,1.67,4.29,1.36,7.66,3.35,10.11,5.97l-10.06,11.81c-1.66-1.77-3.95-3.14-6.89-4.12-2.94-.98-5.77-1.41-8.49-1.29-1.47.06-2.68.23-3.62.49-.94.26-1.65.62-2.14,1.09-.49.46-.76.99-.81,1.58-.07.67.28,1.28,1.03,1.83.75.56,2.24,1.01,4.48,1.35l8.67,1.17c5.7.78,9.74,2.52,12.11,5.22,2.37,2.7,3.35,6.08,2.95,10.14-.35,3.55-1.65,6.86-3.89,9.94-2.24,3.08-5.44,5.59-9.58,7.54-4.14,1.95-9.38,3.06-15.7,3.33Z"/></svg>